<svg fill="none" height="495" viewBox="0 0 945 495" width="945" xmlns="http://www.w3.org/2000/svg" xmlns:xlink="http://www.w3.org/1999/xlink"><clipPath id="clip0_1573_983"><path d="M0 0H945V495H0Z"/></clipPath><clipPath id="clip1_1573_983"><path d="M-3-1.58337H947.796V495.99963H-3Z"/></clipPath><g clip-path="url(#clip0_1573_983)"><path d="M0 0H945V495H0Z" fill="#ffffff"/><path d="M0 0H947.089V495.643H0Z" fill="#e2f1ff" transform="matrix(1 0 0 1 -2.08936 0)"/><g clip-path="url(#clip1_1573_983)"><path d="M0 0H950.796V497.583H0Z" fill="#e2f1ff" transform="matrix(1 0 0 1 -3 -1.58337)"/><path d="M397.587 267.564 396.876 120.189 430.99 105.501 521.446 99.7203 577.87 278.025C581.336 288.979 576.574 300.855 566.501 306.38L505.721 339.719 410.297 288.663C402.509 284.496 397.63 276.397 397.587 267.564Z" fill="#000000"/><circle cx="788.007" cy="169.34" fill="#b1cfe5" r="143.379"/><circle cx="153.823" cy="302.395" fill="#b1cfe5" r="134.906"/><path d="M612.078 567.995C611.676 573.829 606.828 578.355 600.981 578.355H382.982 357.222C353.61 578.355 350.524 575.753 349.913 572.193L309.514 336.527C318.779 312.782 335.621 292.745 357.393 279.547L404.082 251.21C409.588 247.868 415.917 246.1 422.363 246.1H515.148C521.593 246.1 527.923 247.868 533.429 251.21L580.118 279.547C601.89 292.745 618.732 312.782 627.997 336.527L619.681 457.441 612.078 567.995Z" fill="#4680e1"/><path d="M520.606 135.824V250.646C520.606 253.902 518.529 256.77 515.442 257.766L510.218 259.455C483.086 268.179 453.9 268.179 426.793 259.455L421.604 257.766C418.518 256.77 416.44 253.902 416.44 250.682V135.824H520.618 520.606Z" fill="#f4c9b8"/><path d="M520.604 188.896 520.604 219.654C510.313 227.503 497.47 232.096 483.57 232.096 473.023 232.096 463.108 229.459 454.445 224.745 451.626 223.214 453.23 218.852 456.377 219.459 460.289 220.261 464.335 220.686 468.479 220.686 490.459 220.686 509.815 206.393 520.604 188.896Z" fill="#cea193"/><path d="M421.39 150.101C420.114 142.351 412.826 137.144 405.112 138.414 397.399 139.683 392.152 146.954 393.427 154.703 394.703 162.453 403.036 174.006 410.761 172.734 418.487 171.463 422.658 157.802 421.39 150.101Z" fill="#f4c9b8"/><path d="M535.663 131.293C534.387 123.543 527.099 118.336 519.373 119.608 511.648 120.879 506.413 128.148 507.689 135.897 508.964 143.647 517.297 155.2 525.023 153.928 532.748 152.657 536.931 138.994 535.663 131.293Z" fill="#f4c9b8"/><path d="M477.195 219.897C444.734 225.24 413.861 204.005 407.232 171.817L399.78 139.346C392.51 104.085 416.039 69.8528 451.547 64.008 487.055 58.1632 520.303 83.0493 524.73 118.778L528.079 151.925C532.117 184.539 509.668 214.552 477.207 219.895L477.195 219.897Z" fill="#f4c9b8"/><path d="M524.706 118.047 522.348 103.724 522.3 103.732C516.621 69.2318 484.012 45.83 449.488 51.5128 414.963 57.1957 391.563 89.8169 397.242 124.317L399.594 138.604C400.04 141.316 402.605 143.197 405.34 142.747 408.075 142.297 409.913 139.69 409.467 136.979 409.192 135.312 408.996 133.595 408.881 131.852 406.214 115.646 424.299 106.223 440.008 101.433 458.882 95.6774 476.574 83.2399 474.703 71.8697 476.523 82.931 482.72 94.3258 491.273 98.7733 500.131 103.38 512.315 104.375 513.936 114.226L514.833 119.672C515.281 122.396 517.85 124.228 520.573 123.779 523.296 123.331 525.154 120.77 524.706 118.047Z" fill="#000000"/><path d="M751.37 288.582C771.156 270.918 820.936 260.316 838.726 256.987 841.659 256.443 842.991 252.986 841.17 250.611 840.466 249.672 839.378 249.106 838.199 249.039L772.371 245.309C757.073 244.442 742.061 249.68 730.631 259.883L715.018 273.822 751.369 288.597 751.37 288.582Z" fill="#f4c9b8"/><path d="M188.949 399.431C169.163 381.767 119.384 371.165 101.593 367.836 98.66 367.293 97.3284 363.835 99.1497 361.461 99.8536 360.522 100.941 359.955 102.12 359.889L167.949 356.158C183.246 355.291 198.259 360.529 209.688 370.733L221.515 383.586 188.95 399.447 188.949 399.431Z" fill="#f4c9b8"/><path d="M751.446 288.527 712.397 271.201C710.396 270.389 708.268 271.026 707.687 272.612L675.33 400.374 612.803 309.391 554.395 428.08 650.388 495.164C692.598 512.901 734.257 493.946 736.339 458.375L751.446 288.527Z" fill="#4680e1"/><path d="M185.978 397.051 226.357 381.864C228.36 381.055 230.636 382.053 231.398 384.074L261.986 454.52 310.987 333.027 391.757 496.232 293.28 561.464C250.975 579.732 204.183 553.114 198.516 508.861L185.978 397.051Z" fill="#4680e1"/><path d="M615.594 495.051 614.218 537.015 631.829 550.919 619.256 494.707C618.78 492.582 615.665 492.874 615.594 495.051Z" fill="#bca4ea"/><path clip-rule="evenodd" d="M431.404 401.728C427.553 400.696 426.043 396.04 428.555 392.945L486.157 321.954C489.9 317.342 497.284 321.11 495.747 326.846L479.536 387.347C478.749 390.283 480.491 393.301 483.427 394.088L510.189 401.258C514.039 402.29 515.55 406.946 513.038 410.042L455.435 481.032C451.693 485.644 444.309 481.877 445.846 476.14L462.057 415.639C462.844 412.703 461.101 409.685 458.165 408.899L431.404 401.728Z" fill="#306dc6" fill-rule="evenodd"/><rect fill="#ffffff" height="181.141" rx="8.03483" width="238.024" x="668.591" y="67.808"/><path d="M668.591 75.8428C668.591 71.4053 672.188 67.808 676.625 67.808H898.765C903.202 67.808 906.8 71.4053 906.8 75.8428V82.8628H668.591V75.8428Z" fill="#3d3d3d"/><rect fill="#3e5fff" height="91.6916" rx="4.72637" width="164.95" x="677.097" y="91.6769"/><rect fill="#c3dcf4" height="91.118" rx="4.97033" width="49.1245" x="850.34" y="91.9117"/><rect fill="#c3dcf4" height="47.4943" rx="4.97033" width="108.795" x="676.875" y="191.515"/><rect fill="#95d1f9" height="47.4943" rx="4.97033" width="105.482" x="793.953" y="191.515"/><path d="M783.615 135.088C785.484 136.176 785.473 138.88 783.596 139.954L749.389 159.526C747.512 160.6 745.176 159.239 745.184 157.076L745.338 117.666C745.346 115.503 747.693 114.161 749.562 115.25L783.615 135.088Z" fill="#f8f8f8"/><path d="M576.025 447.038 604.192 501.751 617.296 517.19 618.419 473.01 580.316 443.472C577.899 441.598 574.625 444.319 576.025 447.038Z" fill="#306dc6" stroke="#306dc6" stroke-width=".374413"/><g fill="#000000"><path d="M445.08 144.589C445.852 149.6 445.842 153.756 443.919 154.052 441.996 154.348 440.735 150.388 439.963 145.377 439.192 140.366 439.202 136.21 441.125 135.914 443.048 135.618 444.308 139.578 445.08 144.589Z"/><path d="M489.663 137.721C490.435 142.732 490.425 146.888 488.502 147.184 486.578 147.481 485.318 143.52 484.546 138.509 483.774 133.498 483.784 129.342 485.708 129.046 487.631 128.75 488.891 132.71 489.663 137.721Z"/><path d="M444.52 118.306C445.273 117.512 445.656 116.406 445.468 115.265 445.151 113.367 443.358 112.042 441.435 112.351 441.061 112.411 432.957 113.768 426.458 121.162 425.157 122.631 425.3 124.838 426.773 126.164 428.24 127.453 430.472 127.306 431.773 125.837 436.518 120.413 442.492 119.395 442.567 119.382 443.336 119.252 443.995 118.817 444.52 118.306Z"/><path d="M477.309 113.255C476.353 112.725 475.654 111.785 475.49 110.64 475.221 108.735 476.533 106.932 478.46 106.648 478.835 106.592 486.971 105.447 495.394 110.543 497.077 111.553 497.605 113.701 496.599 115.408 495.587 117.079 493.415 117.61 491.732 116.601 485.575 112.856 479.572 113.684 479.496 113.694 478.724 113.801 477.964 113.585 477.309 113.255Z"/><path clip-rule="evenodd" d="M488.82 178.239C488.215 174.874 485.033 172.633 481.644 173.241 478.237 173.851 476.016 177.055 476.61 180.425 477.015 182.676 478.563 184.413 480.563 185.152L480.569 185.155 480.576 185.157C481.562 185.531 482.667 185.647 483.802 185.443L483.803 185.443C486.845 184.899 489.022 182.149 488.907 179.126L488.906 179.08 488.906 179.034C488.908 178.844 488.88 178.626 488.82 178.239ZM481 169.647C486.399 168.68 491.474 172.273 492.419 177.623L492.422 177.643 492.425 177.663C492.427 177.677 492.43 177.692 492.432 177.707 492.484 178.041 492.558 178.524 492.557 179.03 492.719 183.848 489.274 188.172 484.447 189.037 482.661 189.357 480.89 189.178 479.29 188.574 476.123 187.4 473.657 184.635 473.017 181.067L473.016 181.065 473.016 181.062C472.07 175.708 475.613 170.613 481 169.647Z" fill-rule="evenodd"/><path d="M257.604 161.876C260.81 162.445 262.955 165.516 262.386 168.721L237.792 307.316C237.643 308.156 236.835 308.721 235.995 308.572L227.421 307.05C226.581 306.901 226.016 306.092 226.165 305.253L250.758 166.658C251.327 163.452 254.398 161.307 257.604 161.876Z"/><path d="M100.804 301.06 87.7678 301.045 40.2678 198.885C38.895 195.925 40.1779 192.412 43.1317 191.039 46.0919 189.666 49.6048 190.949 50.9776 193.903L100.804 301.06V301.06Z"/></g><path d="M282.275 319.125 282.25 342.635C282.239 352.509 274.225 360.506 264.351 360.495L40.0772 360.251C30.2034 360.24 22.2128 352.226 22.2235 342.352L22.2491 318.842C22.2599 308.968 30.2678 300.978 40.1417 300.989L264.415 301.232C274.289 301.243 282.286 309.251 282.275 319.125Z" fill="#3d3d3d"/><path d="M205.99 319.91C205.992 317.744 207.75 315.989 209.917 315.992L259.1 316.045C261.267 316.048 263.021 317.806 263.018 319.972V319.972C263.016 322.138 261.258 323.892 259.092 323.89L209.908 323.836C207.742 323.834 205.988 322.076 205.99 319.91V319.91Z" fill="#ffffff"/><path d="M56.0858 315.842 43.495 315.828C41.3293 315.826 39.5718 317.58 39.5695 319.745 39.5671 321.911 41.3208 323.669 43.4865 323.671L56.0773 323.685C58.2429 323.687 60.0004 321.933 60.0028 319.768 60.0052 317.602 58.2515 315.844 56.0858 315.842Z" fill="#ffffff"/><path d="M199.797 225.213C198.31 225.213 196.822 224.645 195.677 223.51 170.646 198.478 129.928 198.478 104.906 223.5 102.637 225.771 98.9475 225.771 96.6769 223.5 94.4072 221.23 94.4072 217.54 96.6769 215.271 126.249 185.709 174.355 185.709 203.917 215.271 206.187 217.54 206.187 221.23 203.917 223.5 202.782 224.635 201.294 225.203 199.797 225.203V225.213Z" fill="#3e5fff"/><path d="M185.49 239.503C184.003 239.503 182.515 238.936 181.37 237.801 173.072 229.502 162.024 224.923 150.292 224.923 138.559 224.923 127.51 229.493 119.213 237.801 116.942 240.071 113.253 240.071 110.983 237.801 108.713 235.53 108.713 231.841 110.983 229.571 121.482 219.071 135.447 213.288 150.301 213.288 165.156 213.288 179.12 219.071 189.62 229.571 191.889 231.841 191.889 235.53 189.62 237.801 188.484 238.936 186.997 239.503 185.5 239.503H185.49Z" fill="#3e5fff"/><path d="M171.182 253.815C169.695 253.815 168.208 253.248 167.063 252.113 162.581 247.631 156.622 245.166 150.281 245.166 143.94 245.166 137.981 247.631 133.498 252.113 131.228 254.384 127.539 254.384 125.269 252.113 122.999 249.843 122.999 246.154 125.269 243.884 131.953 237.2 140.837 233.521 150.281 233.521 159.724 233.521 168.609 237.2 175.293 243.884 177.563 246.154 177.563 249.843 175.293 252.113 174.158 253.248 172.67 253.815 171.173 253.815H171.182Z" fill="#3e5fff"/><path d="M150.292 278.399C156.372 278.399 161.301 273.47 161.301 267.39 161.301 261.311 156.372 256.382 150.292 256.382 144.213 256.382 139.284 261.311 139.284 267.39 139.284 273.47 144.213 278.399 150.292 278.399Z" fill="#3e5fff"/></g></g></svg>