<svg fill="none" height="495" viewBox="0 0 945 495" width="945" xmlns="http://www.w3.org/2000/svg" xmlns:xlink="http://www.w3.org/1999/xlink"><clipPath id="clip0_2251_891"><path d="M0 0H945V495H0Z"/></clipPath><clipPath id="clip1_2251_891"><path d="M486 103H932V541H486Z"/></clipPath><g clip-path="url(#clip0_2251_891)"><path d="M0 0H945V495H0Z" fill="#ffffff"/><path d="M949-8H-9V495H949V-8Z" fill="#ff7059"/><path d="M843.5 397C913.916 397 971 340.14 971 270 971 199.86 913.916 143 843.5 143 773.084 143 716 199.86 716 270 716 340.14 773.084 397 843.5 397Z" fill="#f7f7f7"/><path d="M921 415C966.287 415 1003 378.511 1003 333.5 1003 288.489 966.287 252 921 252 875.713 252 839 288.489 839 333.5 839 378.511 875.713 415 921 415Z" fill="#f7f7f7"/><path d="M663.5 449C720.662 449 767 402.661 767 345.5 767 288.339 720.662 242 663.5 242 606.339 242 560 288.339 560 345.5 560 402.661 606.339 449 663.5 449Z" fill="#f7f7f7"/><path d="M52.246 522H386.754C396.831 522 405 513.804 405 503.694L405 108.306C405 98.1957 396.831 90 386.754 90L52.246 90C42.169 90 34 98.1957 34 108.306L34 503.694C34 513.804 42.169 522 52.246 522Z" fill="#000000"/><path d="M34 109C34 105.11 34 78.2074 34 78.2074 34 68.7403 41.8109 61 51.3643 61H387.636C397.189 61 405 68.7403 405 78.2074 405 78.2074 405 105.1 405 109" fill="#3d3d3d"/><path d="M209.5 362C269.975 362 319 312.975 319 252.5 319 192.025 269.975 143 209.5 143 149.025 143 100 192.025 100 252.5 100 312.975 149.025 362 209.5 362Z" fill="#3d3d3d"/><path d="M210 342C259.706 342 300 301.93 300 252.5 300 203.071 259.706 163 210 163 160.294 163 120 203.071 120 252.5 120 301.93 160.294 342 210 342Z" fill="#e45041"/><path d="M409.5 344C459.482 344 500 304.153 500 255 500 205.847 459.482 166 409.5 166 359.518 166 319 205.847 319 255 319 304.153 359.518 344 409.5 344Z" fill="#ffffff" opacity=".5"/><path d="M69.5 99C76.4036 99 82 93.1797 82 86 82 78.8203 76.4036 73 69.5 73 62.5964 73 57 78.8203 57 86 57 93.1797 62.5964 99 69.5 99Z" fill="#bbbbbb"/><path d="M489.946 250.329 499.353 225.879C500.631 222.569 505.129 222.118 507.031 225.109L526.958 256.469 531.853 237.269C532.319 235.449 534.938 235.568 535.232 237.423L542.634 283.122 512.168 299.809 490.579 259.962C488.973 256.997 488.748 253.47 489.957 250.321L489.946 250.329Z" fill="#824f36"/><path d="M310.736 99 372.264 99C377.641 99 382 94.7148 382 89.4288V82.5712C382 77.2852 377.641 73 372.264 73H310.736C305.359 73 301 77.2852 301 82.5712V89.4288C301 94.7148 305.359 99 310.736 99Z" fill="#000000"/><path d="M283.098 222.993C277.983 242.265 258.374 253.699 239.305 248.532 232.385 246.656 231.171 237.277 237.365 233.662L271.322 213.855C277.526 210.24 284.955 216.004 283.098 222.983V222.993Z" fill="#ff7059"/><path d="M136.545 222.993C141.66 242.265 161.269 253.699 180.348 248.532 187.269 246.656 188.482 237.277 182.289 233.662L148.331 213.855C142.127 210.24 134.699 216.004 136.556 222.983L136.545 222.993Z" fill="#ff7059"/><path clip-rule="evenodd" d="M267.912 277.293C268.584 278.815 270.602 279.107 271.605 277.783 272.174 277.042 272.723 276.302 273.271 275.53 278.557 268.115 273.302 257.78 264.25 257.78H262.791C261.167 257.78 260.081 259.459 260.743 260.95L267.922 277.272 267.912 277.293ZM255.715 278.815C254.825 276.792 251.877 277.136 251.463 279.305L248.773 293.583C248.422 295.46 250.377 296.878 251.98 295.856 254.453 294.281 256.853 292.55 259.16 290.652 259.936 290.016 260.174 288.942 259.77 288.024L255.715 278.805V278.815ZM213.734 273.392C212.958 271.515 210.31 271.546 209.576 273.444L197.72 303.97C197.203 305.294 198.02 306.765 199.406 306.974 207.765 308.225 216.29 308.089 224.607 306.577 225.983 306.327 226.749 304.846 226.211 303.542L213.724 273.392H213.734ZM170.916 277.564C170.429 275.457 167.553 275.186 166.684 277.167L161.915 288.055C161.512 288.973 161.76 290.047 162.526 290.683 165.484 293.103 168.588 295.262 171.805 297.17 173.45 298.14 175.364 296.638 174.93 294.772L170.926 277.564H170.916ZM160.922 260.961C161.574 259.469 160.488 257.79 158.874 257.79H157.405C148.353 257.79 143.097 268.126 148.384 275.541 148.932 276.312 149.501 277.074 150.07 277.814 151.084 279.128 153.101 278.847 153.763 277.313L160.933 260.961H160.922ZM185.978 290.35C186.485 292.509 189.444 292.717 190.251 290.652L201.817 260.867C202.396 259.386 201.31 257.78 199.727 257.78H181.219C179.771 257.78 178.706 259.136 179.037 260.554L185.978 290.339V290.35ZM233.297 289.86C234.156 291.924 237.156 291.612 237.57 289.411L243.032 260.471C243.291 259.084 242.235 257.79 240.828 257.79H223.386C221.783 257.79 220.697 259.428 221.317 260.919L233.307 289.86H233.297Z" fill="#ff7059" fill-rule="evenodd"/><path clip-rule="evenodd" d="M415.948 355.401C472.825 355.401 518.933 309.293 518.933 252.415 518.933 195.538 472.825 149.43 415.948 149.43 359.071 149.43 312.962 195.538 312.962 252.415 312.962 309.293 359.071 355.401 415.948 355.401ZM488.768 252.416C488.768 292.633 456.165 325.236 415.948 325.236 375.73 325.236 343.127 292.633 343.127 252.416 343.127 212.198 375.73 179.595 415.948 179.595 456.165 179.595 488.768 212.198 488.768 252.416Z" fill="#3d3d3d" fill-rule="evenodd"/><path d="M487.812 227H481.188C472.248 227 465 234.236 465 243.162V270.838C465 279.764 472.248 287 481.188 287H487.812C496.752 287 504 279.764 504 270.838V243.162C504 234.236 496.752 227 487.812 227Z" fill="#3d3d3d"/><path d="M466.5 568C505.436 568 537 536.212 537 497 537 457.788 505.436 426 466.5 426 427.564 426 396 457.788 396 497 396 536.212 427.564 568 466.5 568Z" fill="#ffffff"/><g fill="#f7f7f7"><path d="M204.5 503C254.482 503 295 462.706 295 413 295 363.294 254.482 323 204.5 323 154.518 323 114 363.294 114 413 114 462.706 154.518 503 204.5 503Z"/><path d="M474.5 640C547.125 640 606 580.902 606 508 606 435.098 547.125 376 474.5 376 401.875 376 343 435.098 343 508 343 580.902 401.875 640 474.5 640Z"/><path d="M319 493C357.108 493 388 462.331 388 424.5 388 386.668 357.108 356 319 356 280.892 356 250 386.668 250 424.5 250 462.331 280.892 493 319 493Z"/><path d="M148 555C192.183 555 228 519.407 228 475.5 228 431.593 192.183 396 148 396 103.817 396 68 431.593 68 475.5 68 519.407 103.817 555 148 555Z"/><path d="M239.5 525C268.495 525 292 501.271 292 472 292 442.729 268.495 419 239.5 419 210.505 419 187 442.729 187 472 187 501.271 210.505 525 239.5 525Z"/></g><g clip-path="url(#clip1_2251_891)"><path d="M615.398 372.31 547.744 281.493C545.288 278.196 540.772 277.236 537.197 279.246L511.312 293.719C507.727 295.728 506.183 300.084 507.717 303.895L537.702 378.527C544.228 394.752 552.725 410.462 563.063 424.588 572.173 437.032 586.156 451.445 601.99 454.148 616.824 456.682 631.252 453.326 642.491 443.932" fill="#dcc6ff"/><path d="M637.29 439.36C644.795 436.313 684.304 413.748 691.356 409.547L779.063 357.149 758.302 272.078 693.831 282.591C693.831 282.591 626.431 348.48 607.653 366.893" fill="#dcc6ff"/><path d="M699.976 277.265 705.193 273.419C715.618 265.726 727.196 259.74 739.495 255.696L775.769 243.773 797.22 267.689C806.303 277.817 825.979 292.798 825.495 306.388L843.346 512.567C842.843 526.66 791.953 531.286 777.889 532.341L663.297 540.921C644.716 542.312 630.1 525.309 634.262 507.143L679.975 307.808C682.786 295.559 689.887 284.731 699.986 277.265H699.976Z" fill="#dcc6ff"/><path d="M756.596 237.441 730.224 254.286 724.484 285.756C723.774 289.691 728.429 292.325 731.437 289.691L775.759 243.931 756.587 237.441H756.596Z" fill="#824f36"/><path d="M654.858 391.016C656.111 387.85 660.874 389.31 660.135 392.633 660.135 392.633 647.669 441.954 647.294 443.443 647.294 443.443 642.392 445.879 631.297 450.534L654.858 391.006V391.016Z" fill="#bca4ea"/><path d="M775.768 243.931 755.491 165.684C747.966 137.113 718.684 120.032 690.103 127.567 661.522 135.101 644.45 164.372 651.985 192.953L659.825 222.707C667.853 253.172 700.321 270.145 729.918 259.355" fill="#814f36"/><path d="M653.287 197.884 650.289 209.689C649.766 211.81 650.565 214.029 652.36 215.291L659.135 220.054 658.612 208.309 653.297 197.884H653.277 653.287Z" fill="#814f36"/><g fill="#000000"><path d="M753.716 160.161C744.09 134.954 716.791 120.535 690.103 127.567 669.954 132.873 655.526 148.987 651.403 168.041 651.344 168.317 651.285 168.593 651.235 168.87 666.956 166.887 671.897 152.617 672.163 151.798 667.735 183.821 713.467 185.349 722.363 183.959 723.764 185.497 725.194 187.115 726.644 188.762 737.236 200.813 749.278 214.512 767.119 209.837L755.491 165.694C754.998 163.83 754.407 161.986 753.726 160.161H753.716Z"/><path d="M661.897 178.988C662.686 178.781 663.376 178.209 663.721 177.391 664.283 176.02 663.623 174.452 662.252 173.889 662.015 173.781 656.196 171.454 649.076 173.682 647.655 174.116 646.866 175.635 647.31 177.045 647.764 178.456 649.243 179.264 650.673 178.811 655.881 177.174 660.19 178.85 660.22 178.87 660.762 179.087 661.354 179.107 661.897 178.969"/><path d="M658.485 200.103C659.609 204.709 660.96 208.328 662.301 208.003 663.643 207.677 663.179 203.841 662.074 199.235 660.95 194.63 659.599 191.01 658.258 191.336 656.916 191.661 657.38 195.498 658.485 200.103Z"/><path clip-rule="evenodd" d="M690.606 232.333C689.837 229.69 687.095 228.161 684.432 228.93 681.75 229.71 680.241 232.461 681 235.114 681.513 236.889 682.904 238.142 684.57 238.566 685.389 238.783 686.287 238.783 687.184 238.526 689.581 237.836 691.09 235.449 690.744 233.033 690.715 232.796 690.665 232.56 690.596 232.333H690.606ZM693.437 231.534C692.234 227.323 687.855 224.877 683.614 226.1 679.373 227.333 676.967 231.712 678.18 235.923 678.998 238.733 681.207 240.735 683.841 241.406 685.172 241.751 686.612 241.751 688.012 241.347 691.81 240.242 694.206 236.495 693.674 232.639 693.634 232.264 693.545 231.889 693.447 231.524L693.437 231.534Z" fill-rule="evenodd"/><path d="M671.167 144.974 724.73 177.785 744.337 200.981C747.858 205.163 753.44 206.977 758.756 205.705L765.512 204.078C764.654 200.517 768.954 197.993 771.616 200.488 785.552 213.595 805.849 219.354 825.811 213.664 853.889 205.675 871.385 176.966 865.615 148.337 859.264 116.817 828.118 97.1221 797.121 104.568 775.591 109.736 759.949 126.61 755.304 146.818 754.584 149.924 750.501 150.743 748.676 148.12 738.755 133.81 721.574 125.584 703.694 127.458 703.644 127.468 703.585 127.488 703.516 127.478 702.895 127.547 702.273 127.626 701.662 127.715 701.455 127.734 701.248 127.774 701.051 127.823 700.557 127.912 700.045 127.981 699.551 128.08 699.019 128.178 698.486 128.306 697.944 128.425 697.747 128.474 697.559 128.514 697.352 128.563L697.165 128.602C696.395 128.79 695.616 129.016 694.867 129.233 694.6 129.293 694.344 129.381 694.088 129.46 693.417 129.677 692.736 129.894 692.076 130.141 691.928 130.21 691.78 130.249 691.622 130.289 690.823 130.594 690.024 130.92 689.265 131.255 689.087 131.334 688.91 131.413 688.742 131.492 688.052 131.807 687.381 132.123 686.72 132.458 686.632 132.508 686.563 132.537 686.484 132.567 680.477 135.654 675.28 139.894 671.138 144.964"/></g><path d="M717.699 192.746C716.081 186.622 719.74 180.349 725.865 178.742 731.989 177.124 738.262 180.783 739.869 186.908 741.487 193.032 737.828 199.304 731.703 200.912 725.579 202.529 719.306 198.87 717.699 192.746Z" fill="#814f36"/><path d="M750.925 113.188 787.525 139.904 766.932 167.883 722.64 154.451C720.845 153.909 721.082 151.295 722.936 151.078L742.611 148.79 714.188 124.864C711.476 122.576 712.521 118.178 715.973 117.349L741.457 111.274C744.742 110.495 748.203 111.186 750.925 113.178V113.188Z" fill="#824f36"/><path d="M890.42 215.281C890.42 215.281 782.623 242.077 775.769 243.763L771.301 248.527C762.494 258.27 735.056 289.297 735.056 289.297 732.66 291.979 732.768 296.053 735.303 298.607L788.915 352.701C791.016 354.821 794.251 355.324 796.884 353.944L882.983 308.933C893.467 303.449 902.718 296.25 912.038 289.297 926.132 278.784 933.164 262.906 931.852 245.499 930.649 229.552 919.179 215.518 907.679 205.32 894.641 193.762 879.847 183.86 864.353 175.882L792.061 138.642C789.024 137.074 785.296 138.011 783.363 140.822L765.6 166.572C763.519 169.59 764.21 173.722 767.159 175.901L854.185 240.016" fill="#dcc6ff"/></g><path d="M54 541C91.0031 541 121 511.227 121 474.5 121 437.773 91.0031 408 54 408 16.9969 408-13 437.773-13 474.5-13 511.227 16.9969 541 54 541Z" fill="#ffffff"/><path d="M78.5 537C130.691 537 173 493.796 173 440.5 173 387.205 130.691 344 78.5 344 26.3091 344-16 387.205-16 440.5-16 493.796 26.3091 537 78.5 537Z" fill="#f7f7f7"/><path d="M980 599C1041.86 599 1092 549.08 1092 487.5 1092 425.92 1041.86 376 980 376 918.144 376 868 425.92 868 487.5 868 549.08 918.144 599 980 599Z" fill="#f7f7f7"/><path d="M262 483H362V557H262Z" fill="#f7f7f7"/><path d="M200.5 427.779C217.655 427.779 233.313 434.382 245.202 445.24 247.555 447.393 251.066 444.583 249.69 441.672 240.833 422.929 222.133 410 200.5 410 178.867 410 160.167 422.919 151.31 441.672 149.934 444.583 153.445 447.393 155.798 445.24 167.687 434.382 183.345 427.779 200.5 427.779Z" fill="#e3e3e3"/><path d="M617.5 568C661.959 568 698 532.407 698 488.5 698 444.593 661.959 409 617.5 409 573.041 409 537 444.593 537 488.5 537 532.407 573.041 568 617.5 568Z" fill="#f7f7f7"/><path d="M880.5 439C917.227 439 947 409.451 947 373 947 336.549 917.227 307 880.5 307 843.773 307 814 336.549 814 373 814 409.451 843.773 439 880.5 439Z" fill="#f7f7f7"/><path d="M715.81 577.022C666.326 530.481 663.827 452.534 710.241 402.916 756.656 353.297 834.39 350.791 883.874 397.332L895.19 407.978C944.674 454.519 947.173 532.466 900.759 582.084 854.344 631.703 776.61 634.209 727.126 587.668L715.81 577.032V577.022Z" fill="#f7f7f7"/><path d="M814.01 364.318C821.967 365.886 856.326 373.739 883.139 395.31 885.918 397.542 889.517 393.889 887.322 391.057 875.89 376.245 853.086 352.738 819.527 345 819.527 345 815.497 350.453 814.113 363.517L814 364.318H814.01Z" fill="#e3e3e3"/></g></svg>