<svg fill="none" height="495" viewBox="0 0 945 495" width="945" xmlns="http://www.w3.org/2000/svg" xmlns:xlink="http://www.w3.org/1999/xlink"><clipPath id="clip0_2276_273"><path d="M0 0H945V495H0Z"/></clipPath><g clip-path="url(#clip0_2276_273)"><path d="M0 0H945V495H0Z" fill="#ffffff"/><rect fill="#e3e3e3" height="473.356" rx="31.8885" width="841.522" x="52" y="45.0513"/><path d="M52 76.9398C52 59.3283 66.277 45.0513 83.8885 45.0513H861.634C879.245 45.0513 893.522 59.3283 893.522 76.9398V98.4437H52L52 76.9398Z" fill="#000000"/><circle cx="90.2951" cy="71.7475" fill="#3d3d3d" r="12.7314"/><circle cx="128.4" cy="71.7475" fill="#3d3d3d" r="12.7314"/><rect fill="#bcbcbc" height="54" rx="27" width="781" x="82" y="136.358"/><rect fill="#bcbcbc" height="359" rx="35" width="781" x="82" y="220.358"/><path d="M245.889 630.063C340.086 632.435 418.372 557.996 420.743 463.798 423.115 369.6 348.676 291.315 254.478 288.943 160.281 286.572 81.9954 361.011 79.6235 455.209 77.2517 549.406 151.691 627.692 245.889 630.063Z" fill="#ff7059"/><path d="M343.419 416.358 402 430.204V539.921L300.114 601.857C300.114 601.857 268.033 659.649 277.877 607.678 287.72 555.707 343.419 416.358 343.419 416.358Z" fill="#e55041"/><path d="M577.176 504.614 555.364 500.78C548.254 499.531 545.23 509.472 551.83 512.394L565.304 518.358H646L641.681 466.358C632.571 493.285 605.173 509.534 577.176 504.614Z" fill="#000000"/><path d="M348.657 228.955 186.387 301.237 423.307 461.07 425.999 255.066 348.657 228.955Z" fill="#ff7059"/><path d="M339.309 385.957C355.297 382.586 365.525 366.892 362.154 350.905 358.783 334.917 343.09 324.689 327.102 328.06 311.114 331.431 300.886 347.124 304.257 363.112 307.628 379.1 323.321 389.328 339.309 385.957Z" fill="#e55041"/><path clip-rule="evenodd" d="M646.886 512.416H343.522C342.909 510.077 342.653 507.841 342.825 505.783L373.785 313.909 484.705 258.441 488.888 243.192 502.042 249.771 515.198 243.192 519.38 258.442 630.282 313.909 646.886 512.416Z" fill="#3d3d3d" fill-rule="evenodd"/><path d="M438.03 386.089 516.753 228.555 438.03 209.696C391.236 198.499 391.691 216.766 315.276 262.615 238.861 308.463 241.747 349.803 248.116 372.094V372.094C264.561 429.655 339.679 445.056 391.022 414.273L438.03 386.089Z" fill="#3d3d3d"/><path d="M495.308 312.522 514.124 188.392 592.664 207.997C596.979 209.058 601.128 210.398 605.144 212.036 605.917 212.33 606.681 212.642 607.403 212.952 612.58 215.172 617.503 217.798 622.121 220.804 636.66 230.243 648.336 243.361 656.005 258.595 656.038 258.655 656.054 258.706 656.104 258.776 656.651 259.878 657.18 260.972 657.683 262.074 664.525 277.157 672.794 304.772 678.812 378.861 681.92 417.136 680.802 429.414 680.802 429.414V429.414C680.802 447.676 670.375 464.334 653.949 472.314L642.679 477.789C607.815 494.726 565.875 478.997 550.748 443.311L495.308 312.522Z" fill="#3d3d3d"/><path d="M568.915 127.381 577.609 184.455C582.653 217.549 559.915 248.503 526.821 253.547L470.837 262.088C437.743 267.133 406.789 244.395 401.725 211.301L392.783 152.679C386.363 110.681 401.668 68.2628 433.424 40.0221L441.335 32.9906C452.78 22.8255 469.021 20.1886 483.085 26.2075L494.281 31.0034C534.159 48.0854 562.361 84.5041 568.896 127.381H568.915Z" fill="#000000"/><path d="M559.438 233.064 501.084 260.082 436.749 247.929 434.475 136.858 527.872 122.604 559.457 233.064H559.438Z" fill="#f4c9b8"/><path d="M491.664 198.479C459.372 203.409 432.603 191.047 426.622 160.169L417.126 111.254C410.572 77.4721 433.444 45.0278 467.436 39.8497 501.428 34.6525 532.936 58.8042 536.776 92.9874L542.298 142.514C545.795 173.754 523.936 193.569 491.664 198.479Z" fill="#f4c9b8"/><path d="M536.433 90.5035C536.566 91.3251 536.662 92.1467 536.777 92.9874L537.102 95.9109 542.299 142.495C542.643 145.437 542.738 148.246 542.643 150.978L468.812 135.215C455.226 132.31 441.24 137.622 433.005 148.819L426.183 158.086 417.107 111.273C416.916 110.299 416.744 109.305 416.591 108.35 411.872 75.6379 434.418 44.9132 467.417 39.8689 500.434 34.8245 531.388 57.6578 536.414 90.5226H536.433V90.5035Z" fill="#cea193"/><path d="M434.437 124.476C433.31 117.082 426.393 111.999 418.979 113.126 411.585 114.254 406.502 121.152 407.63 128.565 408.757 135.96 416.61 147.118 424.005 145.991 431.418 144.864 435.565 131.852 434.437 124.457V124.476Z" fill="#cea193"/><path d="M550.973 106.668C549.846 99.2738 542.929 94.1912 535.515 95.3185 528.121 96.4459 523.038 103.344 524.166 110.757 525.293 118.152 533.146 129.311 540.541 128.183 547.935 127.056 552.101 114.044 550.973 106.649V106.668Z" fill="#cea193"/><g fill="#000000"><path d="M481.48 150.902C480.907 150.998 480.333 150.807 479.932 150.348 479.282 149.66 479.359 148.552 480.066 147.903 480.887 147.157 500.778 129.502 517.172 130.572 518.128 130.629 518.854 131.451 518.777 132.406 518.701 133.362 517.898 134.088 516.943 134.011 502.001 133.056 482.55 150.31 482.359 150.482 482.091 150.711 481.786 150.845 481.461 150.902H481.48Z"/><path d="M496.67 108.56C498.619 112.993 499.536 116.872 497.511 117.732 495.543 118.611 493.288 115.305 491.359 110.872 489.41 106.439 494.741 104.127 496.651 108.56H496.67V108.56Z"/><path d="M453.812 115.114C455.761 119.547 456.678 123.426 454.672 124.285 452.665 125.164 450.43 121.859 448.5 117.426 446.551 112.993 451.882 110.681 453.792 115.114H453.812Z"/><path d="M446.914 120.33C444.64 120.674 442.386 120.999 440.112 121.305 437.743 121.591 435.564 119.91 435.259 117.56 434.972 115.19 436.615 112.993 439.004 112.706 471.047 108.579 504.332 98.3566 504.657 98.2611 506.95 97.5732 509.357 98.8343 510.083 101.127 510.79 103.401 509.51 105.828 507.236 106.515 506.912 106.63 477.448 115.668 446.914 120.311V120.33Z"/></g><path d="M492.123 197.257C488.435 197.83 484.805 198.155 481.308 198.269 479.053 198.327 478.595 201.479 480.735 202.167 493.843 206.371 518.969 209.352 546.789 188.811L539.987 164.984C533.051 182.563 515.262 193.76 492.104 197.295L492.123 197.257Z" fill="#cea193"/><path d="M580.131 204.575C580.15 202.205 579.998 199.836 579.615 197.467L568.915 127.381C562.38 84.5038 534.159 48.066 494.301 30.984H494.282L483.085 26.188C469.06 20.1692 452.781 22.806 441.335 32.9712L433.425 40.0218C431.934 41.3593 430.463 42.7159 429.03 44.1108 427.597 45.5056 426.221 46.9196 424.865 48.3908 423.508 49.843 422.189 51.3334 420.928 52.8237 419.648 54.3332 418.406 55.8809 417.222 57.4286 416.018 58.9954 414.871 60.5813 413.744 62.1864 411.489 65.4155 409.426 68.7211 407.515 72.1413 406.54 73.8419 405.623 75.5615 404.764 77.3003 403.885 79.0391 403.044 80.797 402.26 82.5548 395.095 98.5668 391.331 116.031 391.35 133.801 391.35 136.056 391.407 138.291 391.541 140.527 391.541 140.89 391.579 141.253 391.599 141.635 391.751 144.004 391.981 146.412 392.267 148.781 392.42 150.061 392.592 151.341 392.802 152.622L399.012 192.9 402.356 214.511 403.846 224.274C406.464 241.395 418.712 255.496 435.316 260.426L435.641 260.521 478.289 273.247 478.422 273.285 482.034 274.374C494.855 278.195 508.727 276.075 519.828 268.604L526.764 263.941 529.497 262.107 543.216 252.878 560.374 241.337C563.775 239.044 566.775 236.331 569.374 233.312 576.214 225.344 580.055 215.141 580.15 204.517L580.131 204.575ZM404.477 147.845C403.674 142.686 405.012 137.412 408.069 133.17L408.661 132.368 418.578 118.897 422.82 113.108 426.718 107.815C434.934 96.637 448.959 91.2869 462.525 94.2104L494.721 101.089 509.797 104.299 523.153 107.165C523.459 107.242 523.745 107.299 524.051 107.375 529.879 108.789 535.095 111.694 539.261 115.649 542.012 118.247 544.305 121.286 546.044 124.687 547.687 127.858 548.833 131.336 549.406 135.005L555.616 175.703C556.514 181.512 554.757 187.435 550.84 191.811L548.394 194.543 534.999 209.6 525.962 219.746 518.147 228.535 515.453 231.554C514.65 232.452 513.809 233.312 512.95 234.115 506.453 240.076 498.141 243.267 489.677 243.401 487.059 243.42 484.403 243.191 481.805 242.637 481.575 242.598 481.346 242.541 481.136 242.484 477.716 241.7 474.353 240.382 471.2 238.529L436.1 217.835 421.12 209.008C416.018 205.989 412.54 200.868 411.642 195.002L410.993 190.741 404.458 147.864 404.477 147.845Z" fill="#3d3d3d"/><path d="M687.038 485.186C687.038 485.511 687.038 485.664 686.159 485.817 686.732 485.32 687.038 485.11 687.038 485.186Z" fill="#000000"/><path d="M630.766 227.676 553.725 240C552.043 240.248 550.973 238.93 550.973 237.592 550.973 236.771 551.394 235.93 552.349 235.491 564.635 229.682 574.285 217.59 579.998 205.304 597.252 206.966 613.839 214.583 627.689 225.345 627.747 225.383 627.785 225.421 627.862 225.459 628.855 226.185 629.829 226.911 630.785 227.657L630.766 227.676Z" fill="#000000"/><circle cx="54.1953" cy="54.1953" fill="#3d3d3d" r="54.1953" transform="matrix(-.610705 -.791858 -.791858 .610705 596.629 447.795)"/><path d="M364.687 369.336 359.576 418.674C359.101 423.255 361.624 427.623 365.83 429.501L506.421 492.274 524.686 399.124 364.687 369.336Z" fill="#3d3d3d"/><path d="M360.607 220.592 354.558 220.971C345.694 221.527 339.108 231.548 339.848 243.353L327.862 306.831C328.602 318.636 348.268 325.378 366.541 324.601 377.082 324.152 401.107 311.134 400.367 299.328L377.997 240.962C377.258 229.157 369.472 220.037 360.607 220.592Z" fill="#ff7059"/><path d="M580.251 518.68C577.904 518.38 575.74 517.258 574.142 515.513L513.718 449.501C506.616 441.742 514.767 429.687 524.613 433.388L638.307 476.128C641.676 477.395 644.105 480.374 644.666 483.93L649.511 514.627C650.551 521.211 644.979 526.95 638.366 526.105L580.251 518.68Z" fill="#000000"/><path d="M425.54 220.096 382.747 206.336C378.045 204.824 372.901 206.479 369.963 210.45L356.743 228.32C353.385 232.858 353.812 239.162 357.752 243.206L386.916 273.142 425.54 220.096Z" fill="#f4c9b8"/><path d="M387.799 286.494C383.658 282.21 383.442 275.566 387.182 270.929L420.376 229.776C424.537 224.617 432.092 223.808 437.25 227.969L503.079 281.066C503.776 281.629 504.408 282.268 504.964 282.971L638.622 452.282C646.046 461.687 636.94 474.148 625.932 469.416 599.854 458.206 565.55 441.521 540.336 422.19 465.031 364.456 407.283 306.653 387.799 286.494Z" fill="#3d3d3d"/><path d="M347.158 216.057C348.715 211.764 354.219 210.569 357.416 213.829L366.863 223.463C369.964 226.626 370.977 231.288 369.466 235.453L353.736 278.83C351.887 283.93 346.728 287.048 341.353 286.315L330.217 284.796C326.302 284.262 323.878 280.252 325.225 276.538L347.158 216.057Z" fill="#f4c9b8"/></g></svg>